<svg width="32" height="32" viewBox="0 0 32 32" fill="none" xmlns="http://www.w3.org/2000/svg">
<path fill-rule="evenodd" clip-rule="evenodd" d="M5.00813 14.3295C5.27834 14.2717 5.5587 14.2413 5.84617 14.2413H26.1539C26.4607 14.2413 26.7595 14.276 27.0465 14.3416L24.8903 5.91527C24.7578 5.34062 24.4315 4.82886 23.9663 4.46597C23.5005 4.10264 22.9238 3.91085 22.3334 3.92263H9.65719L9.65248 3.92264C9.07123 3.92584 8.50821 4.12588 8.05525 4.49012C7.60578 4.85154 7.29098 5.35347 7.16121 5.91515L5.00813 14.3295ZM26.1539 16.3842H5.84615C4.82655 16.3842 4 17.2107 4 18.2303V25.6149C4 26.6345 4.82655 27.4612 5.84615 27.4612H26.1539C27.1734 27.4612 28 26.6345 28 25.6149V18.2303C28 17.2107 27.1734 16.3842 26.1539 16.3842ZM10 20.8512C9.40826 20.8512 8.92857 21.3309 8.92857 21.9226C8.92857 22.5144 9.40826 22.9941 10 22.9941H15.1429C15.7346 22.9941 16.2143 22.5144 16.2143 21.9226C16.2143 21.3309 15.7346 20.8512 15.1429 20.8512H10ZM20.291 21.9226C20.291 20.9788 21.0562 20.2137 22 20.2137C22.9439 20.2137 23.709 20.9788 23.709 21.9226C23.709 22.8665 22.9439 23.6316 22 23.6316C21.0562 23.6316 20.291 22.8665 20.291 21.9226Z" fill="#00FFFF"/>
</svg>
