<svg width="80" height="80" viewBox="0 0 80 80" fill="none" xmlns="http://www.w3.org/2000/svg">
<path d="M46.9282 78.1166C42.641 80.6278 37.359 80.6278 33.0718 78.1166L10.9282 65.1457C6.64102 62.6344 4 57.9934 4 52.9709V27.0291C4 22.0066 6.64102 17.3656 10.9282 14.8543L33.0718 1.88345C37.359 -0.627817 42.641 -0.627818 46.9282 1.88345L69.0718 14.8543C73.359 17.3656 76 22.0066 76 27.0291V52.9709C76 57.9934 73.359 62.6344 69.0718 65.1457L46.9282 78.1166Z" fill="url(#paint0_angular_160_1406)"/>
<path d="M33.5772 77.2537L11.4336 64.2828C7.45688 61.9534 5 57.6432 5 52.9709V27.0291C5 22.3568 7.45688 18.0466 11.4336 15.7172L33.5772 2.74632C37.5523 0.417895 42.4477 0.417894 46.4228 2.74632L68.5664 15.7172C72.5431 18.0466 75 22.3569 75 27.0291V52.9709C75 57.6432 72.5431 61.9534 68.5664 64.2828L46.4228 77.2537C42.4477 79.5821 37.5523 79.5821 33.5772 77.2537Z" stroke="white" stroke-opacity="0.4" stroke-width="2"/>
<path fill-rule="evenodd" clip-rule="evenodd" d="M54.8646 35.4711L57.5225 28.8188C57.8541 28.0217 57.8834 27.1289 57.6049 26.3112C57.3265 25.4937 56.7597 24.8088 56.013 24.388C55.5969 24.1674 55.1395 24.0377 54.6706 24.0071C54.2017 23.9765 53.7317 24.0457 53.2907 24.2103C52.8499 24.3749 52.4481 24.6312 52.1112 24.9626C51.7742 25.2941 51.5098 25.6934 51.3346 26.1347L49.0256 31.9227C48.9014 32.237 48.6643 32.4921 48.3621 32.6366C48.0597 32.7812 47.7145 32.8044 47.3959 32.7018C43.0352 31.2839 38.3665 31.1468 33.9319 32.3061C33.6208 32.3873 33.2913 32.3511 33.0047 32.2044C32.7181 32.0577 32.494 31.8104 32.3743 31.5089L30.2816 26.2686C29.9609 25.4257 29.3307 24.7409 28.5226 24.3575C27.7145 23.9741 26.7913 23.9218 25.946 24.2115C25.5233 24.3698 25.1362 24.6122 24.8076 24.9244C24.479 25.2366 24.2156 25.6124 24.0328 26.0294C23.8501 26.4464 23.7518 26.8962 23.7437 27.3523C23.7356 27.8084 23.8178 28.2615 23.9856 28.6849L26.3249 34.552C26.4376 34.8269 26.4562 35.132 26.3777 35.4187C26.2992 35.7054 26.1282 35.9574 25.8919 36.1344C23.1959 38.0926 20.9277 40.5921 19.2288 43.4771C17.5299 46.362 16.4369 49.5705 16.0179 52.9021C15.9736 53.2931 16.0118 53.6891 16.13 54.0638C16.2481 54.4388 16.4435 54.784 16.7033 55.0769C16.963 55.3695 17.2812 55.6034 17.6367 55.7625C17.9923 55.9216 18.3772 56.0026 18.766 55.9999H61.2328C61.6281 55.9985 62.0187 55.9113 62.3782 55.7448C62.7378 55.5782 63.058 55.3359 63.3176 55.034C63.5772 54.7322 63.7701 54.3776 63.8833 53.9942C63.9967 53.6108 64.0279 53.2074 63.975 52.8108C63.1768 46.598 60.051 40.933 55.2433 36.9865C55.0322 36.8054 54.8821 36.5619 54.814 36.2903C54.7462 36.0185 54.7638 35.7321 54.8646 35.4711ZM34.0505 45.7271C34.0505 47.2445 32.8351 48.4745 31.3359 48.4745C29.8367 48.4745 28.6214 47.2445 28.6214 45.7271C28.6214 44.2097 29.8367 42.9798 31.3359 42.9798C32.8351 42.9798 34.0505 44.2097 34.0505 45.7271ZM49.0701 48.4745C50.5693 48.4745 51.7846 47.2445 51.7846 45.7271C51.7846 44.2097 50.5693 42.9798 49.0701 42.9798C47.5708 42.9798 46.3555 44.2097 46.3555 45.7271C46.3555 47.2445 47.5708 48.4745 49.0701 48.4745Z" fill="white"/>
<path d="M56.2472 23.9462L56.2586 23.9523L56.2585 23.9524C57.1132 24.4341 57.7605 25.2171 58.0782 26.1501C58.3955 27.0817 58.3626 28.0989 57.9855 29.0076C57.985 29.0087 57.9846 29.0098 57.9841 29.0108L55.331 35.6512C55.3307 35.652 55.3304 35.6528 55.3301 35.6535C55.2673 35.8176 55.2564 35.9979 55.2991 36.1691C55.3419 36.3394 55.4353 36.4911 55.5653 36.6039C60.4691 40.6314 63.6564 46.4098 64.4707 52.7455C64.5327 53.2112 64.4961 53.6851 64.3629 54.1358C64.2297 54.5868 64.0026 55.0043 63.6967 55.36C63.3908 55.7158 63.0131 56.0017 62.5884 56.1985L62.5883 56.1985C62.1639 56.3951 61.7022 56.4982 61.2347 56.4999L61.2328 56.4999L18.7677 56.4999C18.3077 56.5028 17.8526 56.4069 17.4325 56.2189C17.0117 56.0306 16.6358 55.7541 16.3293 55.4087L16.3292 55.4086C16.0226 55.063 15.7923 54.6558 15.6531 54.2141C15.5139 53.7726 15.4689 53.3062 15.521 52.8459L15.5217 52.8397L15.5218 52.8397C15.9493 49.4407 17.0644 46.1671 18.798 43.2234C20.5308 40.2807 22.8444 37.7306 25.5948 35.7322C25.7401 35.6225 25.8464 35.4661 25.8954 35.2867C25.9448 35.1064 25.933 34.9144 25.8622 34.7417L25.8604 34.7372L25.8604 34.7372L23.5212 28.87L23.5208 28.8691C23.3286 28.3842 23.2345 27.8655 23.2437 27.3434L56.2472 23.9462ZM56.2472 23.9462C55.7687 23.6926 55.2427 23.5433 54.7032 23.5081L54.6706 24.0071M56.2472 23.9462L54.6706 24.0071M54.6706 24.0071L54.7031 23.5081C54.1636 23.4729 53.6229 23.5526 53.1159 23.7418L53.1158 23.7419M54.6706 24.0071L53.1158 23.7419M53.1158 23.7419C52.6088 23.9311 52.1473 24.2257 51.7605 24.6062L52.1112 24.9626M53.1158 23.7419L52.1112 24.9626M52.1112 24.9626L51.7605 24.6062C51.3737 24.9867 51.0706 25.4445 50.87 25.95C50.87 25.9501 50.8699 25.9502 50.8699 25.9503L48.5612 31.7375L48.5606 31.739M52.1112 24.9626L48.5606 31.739M48.5606 31.739C48.4823 31.937 48.3337 32.0959 48.1465 32.1855M48.5606 31.739L48.1465 32.1855M48.1465 32.1855C47.9595 32.2749 47.7465 32.2892 47.5497 32.226C43.0984 30.7789 38.3325 30.6389 33.8056 31.8223C33.6136 31.8725 33.41 31.8502 33.2325 31.7594C33.0549 31.6684 32.9144 31.5142 32.839 31.3244L32.8387 31.3235L30.7475 26.0869L48.1465 32.1855ZM33.5505 45.7271C33.5505 46.974 32.5534 47.9745 31.3359 47.9745C30.1185 47.9745 29.1214 46.974 29.1214 45.7271C29.1214 44.4802 30.1185 43.4798 31.3359 43.4798C32.5534 43.4798 33.5505 44.4802 33.5505 45.7271ZM51.2846 45.7271C51.2846 46.974 50.2875 47.9745 49.0701 47.9745C47.8526 47.9745 46.8555 46.974 46.8555 45.7271C46.8555 44.4802 47.8526 43.4798 49.0701 43.4798C50.2875 43.4798 51.2846 44.4802 51.2846 45.7271Z" stroke="black" stroke-opacity="0.16"/>
<path fill-rule="evenodd" clip-rule="evenodd" d="M4.948 58.082L55.8944 7.13556L69.0717 14.8543C71.8421 16.4771 73.9251 18.9892 75.0522 21.9189L24.1062 72.8649L10.9282 65.1457C8.15806 63.5231 6.07521 61.0113 4.948 58.082Z" fill="white" fill-opacity="0.32"/>
<defs>
<radialGradient id="paint0_angular_160_1406" cx="0" cy="0" r="1" gradientUnits="userSpaceOnUse" gradientTransform="translate(40 40) rotate(91.5466) scale(40.0146 35.0461)">
<stop offset="0.0729167" stop-color="#D2D1D5"/>
<stop offset="0.244792"/>
<stop offset="0.40625" stop-color="#F0EDEC"/>
<stop offset="0.567708"/>
<stop offset="0.744792" stop-color="#C4C4C4"/>
<stop offset="0.921875"/>
</radialGradient>
</defs>
</svg>
