<svg width="32" height="32" viewBox="0 0 32 32" fill="none" xmlns="http://www.w3.org/2000/svg">
<path fill-rule="evenodd" clip-rule="evenodd" d="M8.89475 5.11845C9.2208 3.62898 11.3416 3.61971 11.6807 5.10628L11.6975 5.18041C11.7091 5.23139 11.7198 5.279 11.7314 5.32824C12.1541 7.12861 13.6111 8.50427 15.435 8.82156C16.9871 9.09159 16.9871 11.3197 15.435 11.5897C13.6014 11.9087 12.1386 13.2974 11.7247 15.1119L11.6807 15.305C11.3416 16.7916 9.2208 16.7823 8.89475 15.2928L8.85848 15.1271C8.45975 13.3057 6.99873 11.9066 5.16177 11.587C3.61275 11.3175 3.61274 9.09378 5.16177 8.8243C6.99233 8.50583 8.44959 7.11528 8.85426 5.30317L8.88122 5.18049L8.89475 5.11845ZM22.2338 10.1978C22.5497 10.0649 22.8889 9.99645 23.2315 9.99645C23.5741 9.99645 23.9133 10.0649 24.2292 10.1978C24.5438 10.3303 24.829 10.524 25.0681 10.7679L25.0706 10.7704L27.2419 12.9588C27.4816 13.1973 27.6722 13.4808 27.8021 13.793C27.9328 14.1065 28 14.4427 28 14.7823C28 15.1218 27.9328 15.458 27.8021 15.7715C27.672 16.0838 27.4816 16.3674 27.2417 16.606L27.2392 16.6085L16.6118 27.3044C16.4689 27.4483 16.2796 27.5368 16.0776 27.5542L10.9332 28.0001C10.681 28.022 10.432 27.9313 10.2529 27.7523C10.0739 27.5731 9.98315 27.3241 10.005 27.0719L10.4508 21.9275C10.4683 21.7255 10.5569 21.5363 10.7007 21.3933L21.3972 10.7655C21.6357 10.5228 21.92 10.3298 22.2338 10.1978Z" fill="#718096"/>
</svg>
