<svg width="32" height="32" viewBox="0 0 32 32" fill="none" xmlns="http://www.w3.org/2000/svg">
<path d="M16 29.3334C14.1777 29.3334 12.4555 28.9834 10.8333 28.2834C9.21107 27.5834 7.7944 26.6279 6.58329 25.4167C5.37218 24.2056 4.41663 22.789 3.71663 21.1667C3.01663 19.5445 2.66663 17.8223 2.66663 16.0001C2.66663 14.1556 3.01663 12.4279 3.71663 10.8167C4.41663 9.20564 5.37218 7.79453 6.58329 6.58341C7.7944 5.3723 9.21107 4.41675 10.8333 3.71675C12.4555 3.01675 14.1777 2.66675 16 2.66675C17.8444 2.66675 19.5722 3.01675 21.1833 3.71675C22.7944 4.41675 24.2055 5.3723 25.4166 6.58341C26.6277 7.79453 27.5833 9.20564 28.2833 10.8167C28.9833 12.4279 29.3333 14.1556 29.3333 16.0001C29.3333 17.8223 28.9833 19.5445 28.2833 21.1667C27.5833 22.789 26.6277 24.2056 25.4166 25.4167C24.2055 26.6279 22.7944 27.5834 21.1833 28.2834C19.5722 28.9834 17.8444 29.3334 16 29.3334ZM16 26.6001C16.5777 25.8001 17.0777 24.9667 17.5 24.1001C17.9222 23.2334 18.2666 22.3112 18.5333 21.3334H13.4666C13.7333 22.3112 14.0777 23.2334 14.5 24.1001C14.9222 24.9667 15.4222 25.8001 16 26.6001ZM12.5333 26.0667C12.1333 25.3334 11.7833 24.5723 11.4833 23.7834C11.1833 22.9945 10.9333 22.1779 10.7333 21.3334H6.79996C7.4444 22.4445 8.24996 23.4112 9.21663 24.2334C10.1833 25.0556 11.2888 25.6667 12.5333 26.0667ZM19.4666 26.0667C20.7111 25.6667 21.8166 25.0556 22.7833 24.2334C23.75 23.4112 24.5555 22.4445 25.2 21.3334H21.2666C21.0666 22.1779 20.8166 22.9945 20.5166 23.7834C20.2166 24.5723 19.8666 25.3334 19.4666 26.0667ZM5.66663 18.6667H10.2C10.1333 18.2223 10.0833 17.7834 10.05 17.3501C10.0166 16.9167 9.99996 16.4667 9.99996 16.0001C9.99996 15.5334 10.0166 15.0834 10.05 14.6501C10.0833 14.2167 10.1333 13.7779 10.2 13.3334H5.66663C5.55551 13.7779 5.47218 14.2167 5.41663 14.6501C5.36107 15.0834 5.33329 15.5334 5.33329 16.0001C5.33329 16.4667 5.36107 16.9167 5.41663 17.3501C5.47218 17.7834 5.55551 18.2223 5.66663 18.6667ZM12.8666 18.6667H19.1333C19.2 18.2223 19.25 17.7834 19.2833 17.3501C19.3166 16.9167 19.3333 16.4667 19.3333 16.0001C19.3333 15.5334 19.3166 15.0834 19.2833 14.6501C19.25 14.2167 19.2 13.7779 19.1333 13.3334H12.8666C12.8 13.7779 12.75 14.2167 12.7166 14.6501C12.6833 15.0834 12.6666 15.5334 12.6666 16.0001C12.6666 16.4667 12.6833 16.9167 12.7166 17.3501C12.75 17.7834 12.8 18.2223 12.8666 18.6667ZM21.8 18.6667H26.3333C26.4444 18.2223 26.5277 17.7834 26.5833 17.3501C26.6388 16.9167 26.6666 16.4667 26.6666 16.0001C26.6666 15.5334 26.6388 15.0834 26.5833 14.6501C26.5277 14.2167 26.4444 13.7779 26.3333 13.3334H21.8C21.8666 13.7779 21.9166 14.2167 21.95 14.6501C21.9833 15.0834 22 15.5334 22 16.0001C22 16.4667 21.9833 16.9167 21.95 17.3501C21.9166 17.7834 21.8666 18.2223 21.8 18.6667ZM21.2666 10.6667H25.2C24.5555 9.55564 23.75 8.58897 22.7833 7.76675C21.8166 6.94453 20.7111 6.33341 19.4666 5.93341C19.8666 6.66675 20.2166 7.42786 20.5166 8.21675C20.8166 9.00564 21.0666 9.8223 21.2666 10.6667ZM13.4666 10.6667H18.5333C18.2666 9.68897 17.9222 8.76675 17.5 7.90008C17.0777 7.03341 16.5777 6.20008 16 5.40008C15.4222 6.20008 14.9222 7.03341 14.5 7.90008C14.0777 8.76675 13.7333 9.68897 13.4666 10.6667ZM6.79996 10.6667H10.7333C10.9333 9.8223 11.1833 9.00564 11.4833 8.21675C11.7833 7.42786 12.1333 6.66675 12.5333 5.93341C11.2888 6.33341 10.1833 6.94453 9.21663 7.76675C8.24996 8.58897 7.4444 9.55564 6.79996 10.6667Z" fill="#718096"/>
</svg>
